<svg width="98" height="40" viewBox="0 0 98 40" fill="none" xmlns="http://www.w3.org/2000/svg">
<path fill-rule="evenodd" clip-rule="evenodd" d="M20.3004 0H24.7781V9.01239C24.7781 13.4323 21.195 17.0154 16.7751 17.0154H15.4071C14.351 20.142 11.3937 22.393 7.91068 22.393C3.54173 22.393 0 18.8513 0 14.4824C0 10.1134 3.54173 6.57169 7.91068 6.57169C11.5004 6.57169 14.5317 8.96277 15.4988 12.2392H16.2989C18.5088 12.2392 20.3004 10.4476 20.3004 8.23765V0ZM11.6434 14.5854C11.6191 12.6279 10.0247 11.0486 8.06149 11.0486C6.0831 11.0486 4.47929 12.6524 4.47929 14.6308C4.47929 16.6092 6.0831 18.213 8.06149 18.213C10.0247 18.213 11.6191 16.6337 11.6434 14.6762V14.5854Z" fill="#121929"/>
<path fill-rule="evenodd" clip-rule="evenodd" d="M32.6909 6.57031C32.7407 6.57031 32.7904 6.57077 32.84 6.57169V11.0491C30.8626 11.0503 29.26 12.6537 29.26 14.6313C29.26 16.6097 30.8638 18.2135 32.8422 18.2135C34.8206 18.2135 36.4244 16.6097 36.4244 14.6313V14.6307H36.4213V6.57081H40.6005V14.6307H40.6002C40.5204 18.9306 37.0099 22.3917 32.6909 22.3917C28.322 22.3917 24.7803 18.8499 24.7803 14.481C24.7803 10.112 28.322 6.57031 32.6909 6.57031Z" fill="#121929"/>
<rect x="59.7026" y="16.7148" width="4.17923" height="27.762" transform="rotate(-90 59.7026 16.7148)" fill="#121929"/>
<rect x="37.0181" y="16.7148" width="4.17923" height="10.7466" transform="rotate(-90 37.0181 16.7148)" fill="#121929"/>
<rect x="37.0181" y="16.7148" width="4.17923" height="10.7466" transform="rotate(-90 37.0181 16.7148)" fill="#121929"/>
<path fill-rule="evenodd" clip-rule="evenodd" d="M51.3432 22.3972C51.2938 22.3981 51.2444 22.3986 51.1949 22.3986C46.877 22.3986 43.367 18.9391 43.2856 14.6406H47.7635C47.7648 16.6171 49.3667 18.2191 51.3432 18.2204V22.3972Z" fill="#121929"/>
<path fill-rule="evenodd" clip-rule="evenodd" d="M55.8217 22.3963C55.8714 22.3972 55.9212 22.3977 55.9712 22.3977C60.2888 22.3977 63.7985 18.9387 63.8804 14.6406H59.404C59.4017 16.6171 57.7987 18.2186 55.8218 18.2186C55.8217 18.2186 55.8217 18.2186 55.8217 18.2186V22.3963Z" fill="#121929"/>
<rect x="51.0469" y="18.2109" width="5.07477" height="4.17923" fill="#121929"/>
<rect x="43.2871" y="6.57031" width="4.47774" height="8.05993" fill="#121929"/>
<rect x="59.4053" y="6.57031" width="4.47774" height="8.05993" fill="#121929"/>
<path fill-rule="evenodd" clip-rule="evenodd" d="M74.629 22.3903C74.58 22.3912 74.5308 22.3917 74.4815 22.3917C70.1125 22.3917 66.5708 18.8499 66.5708 14.481C66.5708 10.112 70.1125 6.57031 74.4815 6.57031C78.8504 6.57031 82.3922 10.112 82.3922 14.481C82.3922 14.5298 82.3917 14.5786 82.3908 14.6272H78.2083C78.2071 12.6498 76.6038 11.0472 74.6261 11.0472C72.6477 11.0472 71.0439 12.651 71.0439 14.6294C71.0439 16.6078 72.6477 18.2116 74.6261 18.2116C74.6271 18.2116 74.6281 18.2116 74.629 18.2116V22.3903Z" fill="#121929"/>
<path fill-rule="evenodd" clip-rule="evenodd" d="M32.6856 34.0245C37.0545 34.0245 40.5963 30.4827 40.5963 26.1138C40.5963 21.7449 37.0545 18.2031 32.6856 18.2031C28.3166 18.2031 24.7749 21.7449 24.7749 26.1138C24.7749 30.4827 28.3166 34.0245 32.6856 34.0245ZM32.835 29.8433C34.8134 29.8433 36.4172 28.2395 36.4172 26.2611C36.4172 24.2828 34.8134 22.679 32.835 22.679C30.8566 22.679 29.2528 24.2828 29.2528 26.2611C29.2528 28.2395 30.8566 29.8433 32.835 29.8433Z" fill="#121929"/>
<rect x="7.5293" y="28.3789" width="4.22007" height="20.2729" transform="rotate(-90 7.5293 28.3789)" fill="#121929"/>
<rect x="37.0181" y="28.3516" width="4.17923" height="9.254" transform="rotate(-90 37.0181 28.3516)" fill="#121929"/>
<path fill-rule="evenodd" clip-rule="evenodd" d="M51.3407 18.2093C51.2917 18.2084 51.2426 18.2079 51.1934 18.2079C46.8758 18.2079 43.3661 21.6669 43.2842 25.9648H47.7615C47.7624 23.9882 49.3642 22.3858 51.3407 22.3842V18.2093Z" fill="#121929"/>
<path fill-rule="evenodd" clip-rule="evenodd" d="M55.8226 18.2093C55.8717 18.2084 55.9209 18.2079 55.9702 18.2079C60.2878 18.2079 63.7974 21.6669 63.8794 25.9648H59.4039C59.4031 23.9874 57.8001 22.3846 55.8226 22.3842V18.2093Z" fill="#121929"/>
<rect width="5.07477" height="4.17923" transform="matrix(1 0 0 -1 51.0454 22.3867)" fill="#121929"/>
<rect width="4.47774" height="8.05993" transform="matrix(1 0 0 -1 43.2847 34.0273)" fill="#121929"/>
<rect width="4.47774" height="8.05993" transform="matrix(1 0 0 -1 59.4038 34.0273)" fill="#121929"/>
<path fill-rule="evenodd" clip-rule="evenodd" d="M74.4795 34.0245C78.8485 34.0245 82.3902 30.4827 82.3902 26.1138C82.3902 21.7449 78.8485 18.2031 74.4795 18.2031C70.1106 18.2031 66.5688 21.7449 66.5688 26.1138C66.5688 30.4827 70.1106 34.0245 74.4795 34.0245ZM74.6264 29.8433C76.6048 29.8433 78.2086 28.2395 78.2086 26.2611C78.2086 24.2828 76.6048 22.679 74.6264 22.679C72.648 22.679 71.0442 24.2828 71.0442 26.2611C71.0442 28.2395 72.648 29.8433 74.6264 29.8433Z" fill="#121929"/>
<rect x="64.4785" y="28.3555" width="4.17923" height="5.07477" transform="rotate(-90 64.4785 28.3555)" fill="#121929"/>
<rect x="81.1948" y="28.6523" width="4.47774" height="8.05993" transform="rotate(-90 81.1948 28.6523)" fill="#121929"/>
<rect x="61.7891" y="40" width="4.17923" height="27.4635" transform="rotate(-90 61.7891 40)" fill="#121929"/>
<path fill-rule="evenodd" clip-rule="evenodd" d="M89.2529 39.9904C93.5522 39.9099 97.0126 36.3997 97.0126 32.0811C97.0126 27.7626 93.5522 24.2523 89.2529 24.1719V28.6512C91.2301 28.6526 92.8325 30.2559 92.8325 32.2334C92.8325 34.2109 91.2301 35.8142 89.2529 35.8156V39.9904Z" fill="#121929"/>
<path fill-rule="evenodd" clip-rule="evenodd" d="M17.8413 34.1094L17.8094 34.1093V29.6259C19.695 29.5671 21.2134 28.0511 21.2759 26.1664H25.7519C25.7519 26.1771 25.752 26.1879 25.752 26.1987C25.752 30.5676 22.2102 34.1094 17.8413 34.1094ZM17.8086 18.2881C13.465 18.3057 9.94734 21.8239 9.93066 26.1677H14.1156C14.1142 26.1271 14.1135 26.0864 14.1135 26.0455C14.1135 24.0671 15.7173 22.4633 17.6957 22.4633C17.7335 22.4633 17.7711 22.4639 17.8086 22.4651V18.2881Z" fill="#121929"/>
</svg>
