<svg width="32" height="12" viewBox="0 0 32 12" fill="none" xmlns="http://www.w3.org/2000/svg">
<path d="M2 12C1.43333 12 0.958333 11.8083 0.575 11.425C0.191667 11.0417 0 10.5667 0 10C0 9.43333 0.191667 8.95833 0.575 8.575C0.958333 8.19167 1.43333 8 2 8H30C30.5667 8 31.0417 8.19167 31.425 8.575C31.8083 8.95833 32 9.43333 32 10C32 10.5667 31.8083 11.0417 31.425 11.425C31.0417 11.8083 30.5667 12 30 12H2ZM2 4C1.43333 4 0.958333 3.80833 0.575 3.425C0.191667 3.04167 0 2.56667 0 2C0 1.43333 0.191667 0.958333 0.575 0.575C0.958333 0.191667 1.43333 0 2 0H30C30.5667 0 31.0417 0.191667 31.425 0.575C31.8083 0.958333 32 1.43333 32 2C32 2.56667 31.8083 3.04167 31.425 3.425C31.0417 3.80833 30.5667 4 30 4H2Z" fill="#888888"/>
</svg>
