<?xml version="1.0" standalone="no"?>
<!DOCTYPE svg PUBLIC "-//W3C//DTD SVG 20010904//EN"
 "http://www.w3.org/TR/2001/REC-SVG-20010904/DTD/svg10.dtd">
<svg version="1.0" xmlns="http://www.w3.org/2000/svg"
 width="420.000000pt" height="420.000000pt" viewBox="0 0 420.000000 420.000000"
 preserveAspectRatio="xMidYMid meet">
<metadata>
Created by potrace 1.14, written by Peter Selinger 2001-2017
</metadata>
<g transform="translate(0.000000,420.000000) scale(0.100000,-0.100000)"
fill="#000000" stroke="none">
<path d="M1667 3615 c-15 -36 -27 -73 -27 -83 0 -11 -24 -29 -68 -51 -130 -66
-218 -144 -341 -303 -12 -14 -21 -31 -21 -37 0 -6 -4 -11 -8 -11 -9 0 -37 -54
-30 -56 1 -1 -5 -11 -15 -21 -9 -11 -14 -23 -10 -26 3 -4 1 -7 -6 -7 -7 0 -9
-4 -6 -10 3 -5 1 -10 -6 -10 -7 0 -10 -3 -6 -6 3 -3 -5 -26 -19 -50 -13 -24
-24 -45 -24 -46 1 -3 -7 -28 -23 -73 -6 -16 -28 -48 -50 -69 -66 -66 -78 -107
-73 -249 5 -130 14 -220 26 -251 5 -15 -2 -27 -26 -48 -39 -34 -67 -101 -69
-166 -3 -89 51 -237 128 -352 36 -53 107 -121 119 -114 4 3 8 0 8 -6 0 -6 4
-9 9 -5 5 3 12 1 15 -4 7 -10 61 0 95 18 28 16 60 8 93 -21 14 -13 46 -41 72
-63 26 -21 58 -48 70 -60 42 -37 82 -70 110 -90 16 -11 44 -35 65 -52 20 -18
39 -33 43 -33 4 0 13 -6 20 -13 31 -30 97 -77 107 -77 6 0 11 -3 11 -8 0 -6
71 -43 90 -47 3 0 15 -6 28 -13 12 -7 22 -10 22 -6 0 3 6 1 14 -5 8 -7 22 -13
32 -16 11 -2 53 -18 94 -35 41 -17 76 -31 78 -30 1 0 4 -1 7 -1 3 -1 10 -3 15
-4 6 -1 11 -3 13 -5 1 -1 9 -3 17 -5 8 -2 29 -6 45 -10 17 -3 75 -9 130 -12
150 -8 266 27 360 111 22 20 80 57 129 83 49 26 95 54 103 62 12 12 21 12 47
3 57 -21 98 -14 108 18 4 13 46 15 294 15 329 1 336 3 409 87 54 63 69 105 68
199 -2 138 -97 235 -229 233 -64 -2 -101 -16 -153 -60 -41 -34 -52 -55 -58
-114 -13 -125 68 -201 207 -194 85 5 158 66 168 144 6 39 12 37 12 -3 0 -49
-27 -127 -52 -146 -14 -12 -38 -16 -86 -14 -37 1 -178 3 -315 4 -136 2 -253 6
-259 10 -9 6 -9 22 0 71 21 103 17 185 -12 274 -15 43 -33 92 -42 107 -9 16
-18 45 -21 65 -2 21 -6 53 -9 72 -11 88 -12 230 0 223 8 -5 8 -3 0 8 -7 8 -12
52 -13 98 -1 47 -4 87 -6 89 -2 3 15 27 39 53 50 56 59 90 51 189 -8 97 -51
276 -76 318 -30 48 -73 88 -129 117 -30 16 -62 47 -98 93 -28 38 -77 91 -108
118 -31 27 -63 55 -70 62 -7 6 -17 12 -23 12 -6 0 -11 4 -11 8 0 5 -19 19 -42
32 -24 13 -45 26 -48 30 -20 26 -262 124 -337 136 -21 3 -41 8 -45 10 -18 11
-207 4 -249 -9 -43 -13 -45 -13 -45 6 1 16 -15 27 -79 53 -44 18 -85 33 -91
34 -6 0 -22 -29 -37 -65z m2016 -1922 c-29 -11 -13 -33 23 -33 58 0 95 -60 69
-110 -18 -34 -41 -49 -81 -51 -93 -5 -142 80 -87 150 24 30 55 50 78 50 6 -1
4 -3 -2 -6z"/>
<path d="M3161 3560 c-17 -28 -31 -54 -31 -58 0 -4 -9 -18 -19 -31 -16 -20
-17 -27 -6 -38 8 -7 18 -13 23 -13 10 0 92 -38 135 -61 11 -6 21 -8 23 -6 6 6
74 170 74 179 0 7 -145 78 -160 78 -5 0 -22 -23 -39 -50z"/>
<path d="M3396 2853 c-4 -16 -17 -126 -20 -177 -1 -14 6 -20 24 -22 14 -1 56
-3 94 -5 80 -5 73 -15 78 121 3 84 3 85 -22 87 -14 1 -53 4 -87 8 -53 5 -62 3
-67 -12z"/>
<path d="M3130 2379 c0 -5 5 -7 10 -4 6 3 10 8 10 11 0 2 -4 4 -10 4 -5 0 -10
-5 -10 -11z"/>
<path d="M3170 2379 c0 -5 5 -7 10 -4 6 3 10 8 10 11 0 2 -4 4 -10 4 -5 0 -10
-5 -10 -11z"/>
<path d="M3196 2342 c-3 -4 4 -9 15 -9 23 -2 25 3 4 10 -8 4 -16 3 -19 -1z"/>
<path d="M3255 2309 c-4 -6 -5 -12 -2 -15 2 -3 7 2 10 11 7 17 1 20 -8 4z"/>
<path d="M3210 2299 c0 -5 5 -7 10 -4 6 3 10 8 10 11 0 2 -4 4 -10 4 -5 0 -10
-5 -10 -11z"/>
<path d="M3110 2206 c0 -2 7 -7 16 -10 8 -3 12 -2 9 4 -6 10 -25 14 -25 6z"/>
<path d="M3153 2195 c0 -8 4 -12 9 -9 4 3 8 9 8 15 0 5 -4 9 -8 9 -5 0 -9 -7
-9 -15z"/>
<path d="M3264 2162 c4 -3 14 -7 22 -8 9 -1 13 0 10 4 -4 3 -14 7 -22 8 -9 1
-13 0 -10 -4z"/>
<path d="M3150 2136 c0 -2 8 -10 18 -17 15 -13 16 -12 3 4 -13 16 -21 21 -21
13z"/>
<path d="M3255 2100 c-3 -5 -1 -10 4 -10 6 0 11 5 11 10 0 6 -2 10 -4 10 -3 0
-8 -4 -11 -10z"/>
<path d="M3275 1929 c-4 -6 -5 -12 -2 -15 2 -3 7 2 10 11 7 17 1 20 -8 4z"/>
<path d="M692 1543 l-81 -55 57 -74 c31 -41 62 -74 67 -74 6 0 28 16 50 36 22
19 52 45 67 57 33 26 35 39 9 69 -11 13 -29 34 -40 47 -12 13 -21 27 -21 31 0
24 -35 11 -108 -37z"/>
<path d="M3409 1085 c-5 -4 -26 -8 -118 -20 -37 -5 -41 -16 -30 -90 14 -98 11
-94 61 -85 24 5 60 10 81 13 21 3 41 8 44 11 7 7 -15 144 -26 164 -4 7 -9 10
-12 7z"/>
<path d="M752 876 l-74 -72 66 -60 c37 -32 70 -60 75 -62 5 -1 39 26 76 62 57
54 65 67 56 82 -10 19 -96 105 -116 116 -6 4 -43 -26 -83 -66z"/>
<path d="M2603 878 c0 -7 -4 -40 -8 -73 -15 -125 -18 -115 29 -116 22 0 70 -1
106 -2 l65 -2 1 90 c0 50 -1 96 -4 103 -3 8 -32 12 -96 12 -67 0 -93 -3 -93
-12z"/>
<path d="M1386 738 c-30 -35 -56 -67 -55 -73 0 -5 21 -26 47 -45 26 -19 58
-45 72 -57 14 -13 30 -23 35 -23 10 0 115 130 115 142 0 7 -144 118 -152 118
-3 0 -31 -28 -62 -62z"/>
</g>
</svg>
