<svg width="74" height="43" viewBox="0 0 74 43" fill="none" xmlns="http://www.w3.org/2000/svg">
<path d="M19.3359 8.29688C19.3359 8.76562 19.2227 9.25 18.9961 9.75C18.7773 10.25 18.4258 10.7617 17.9414 11.2852C17.4648 11.8086 16.8477 12.3398 16.0898 12.8789C15.3398 13.4102 14.4336 13.9492 13.3711 14.4961C12.8008 14.7852 12.1953 15.0781 11.5547 15.375C10.9219 15.6641 10.2891 15.9375 9.65625 16.1953C9.03125 16.4531 8.42578 16.6875 7.83984 16.8984C7.25391 17.1094 6.72266 17.2852 6.24609 17.4258C6.02734 17.4883 5.79688 17.5469 5.55469 17.6016C5.3125 17.6562 5.08203 17.7031 4.86328 17.7422C4.64453 17.7812 4.44141 17.8125 4.25391 17.8359C4.06641 17.8516 3.91406 17.8594 3.79688 17.8594C3.60938 17.8594 3.46875 17.832 3.375 17.7773C3.28906 17.7148 3.21875 17.6406 3.16406 17.5547C3.11719 17.4688 3.08203 17.375 3.05859 17.2734C3.04297 17.1719 3.01172 17.0781 2.96484 16.9922C2.92578 16.9062 2.86328 16.8359 2.77734 16.7812C2.69922 16.7188 2.57812 16.6875 2.41406 16.6875C2.22656 16.6875 2.07812 16.6367 1.96875 16.5352C1.85938 16.4258 1.77344 16.2969 1.71094 16.1484C1.65625 15.9922 1.62109 15.8281 1.60547 15.6562C1.58984 15.4766 1.58203 15.3164 1.58203 15.1758C1.58203 14.7852 1.64453 14.3633 1.76953 13.9102C1.90234 13.4492 2.04688 12.9375 2.20312 12.375C2.27344 12.1172 2.36328 11.7695 2.47266 11.332C2.58984 10.8945 2.71094 10.4141 2.83594 9.89062C2.96094 9.35938 3.08594 8.8125 3.21094 8.25C3.34375 7.6875 3.46094 7.16016 3.5625 6.66797C3.66406 6.16797 3.74609 5.72656 3.80859 5.34375C3.87109 4.95313 3.90234 4.67188 3.90234 4.5C3.90234 4.375 3.84766 4.26172 3.73828 4.16016C3.63672 4.05078 3.51953 3.9375 3.38672 3.82031C3.26172 3.69531 3.14453 3.55469 3.03516 3.39844C2.93359 3.23438 2.88281 3.03516 2.88281 2.80078C2.88281 2.66797 2.89062 2.51953 2.90625 2.35547C2.92969 2.18359 2.98438 2.02734 3.07031 1.88672C3.16406 1.73828 3.29688 1.61719 3.46875 1.52344C3.64844 1.42187 3.89453 1.37109 4.20703 1.37109C4.39453 1.37109 4.57031 1.38672 4.73438 1.41797C4.90625 1.44922 5.09766 1.48438 5.30859 1.52344C5.51953 1.55469 5.76172 1.58594 6.03516 1.61719C6.31641 1.64844 6.66016 1.66406 7.06641 1.66406C7.71484 1.66406 8.39844 1.6875 9.11719 1.73438C9.83594 1.77344 10.5391 1.83594 11.2266 1.92188C11.9219 2.00781 12.5703 2.11328 13.1719 2.23828C13.7812 2.36328 14.2969 2.51172 14.7188 2.68359C15.2578 2.90234 15.8008 3.21094 16.3477 3.60938C16.8945 4 17.3906 4.44922 17.8359 4.95703C18.2812 5.45703 18.6406 5.99609 18.9141 6.57422C19.1953 7.14453 19.3359 7.71875 19.3359 8.29688ZM5.94141 14.5898C6.33984 14.5898 6.79688 14.5312 7.3125 14.4141C7.82812 14.2891 8.37109 14.125 8.94141 13.9219C9.51172 13.7188 10.0938 13.4844 10.6875 13.2188C11.2812 12.9453 11.8516 12.6602 12.3984 12.3633C12.9453 12.0586 13.457 11.75 13.9336 11.4375C14.4102 11.125 14.8164 10.8242 15.1523 10.5352C15.3398 10.3711 15.5039 10.1992 15.6445 10.0195C15.793 9.83984 15.9141 9.66797 16.0078 9.50391C16.1094 9.33984 16.1836 9.19531 16.2305 9.07031C16.2852 8.9375 16.3125 8.83594 16.3125 8.76562C16.3125 8.66406 16.3086 8.54297 16.3008 8.40234C16.3008 8.26172 16.293 8.12109 16.2773 7.98047C16.2695 7.83203 16.2539 7.69141 16.2305 7.55859C16.207 7.41797 16.1758 7.30078 16.1367 7.20703C15.9492 6.87891 15.7422 6.5625 15.5156 6.25781C15.2891 5.94531 15.0195 5.67969 14.707 5.46094C14.457 5.28906 14.1094 5.125 13.6641 4.96875C13.2188 4.80469 12.75 4.66016 12.2578 4.53516C11.7656 4.41016 11.2852 4.3125 10.8164 4.24219C10.3555 4.16406 9.97656 4.125 9.67969 4.125C9.41406 4.125 9.13672 4.12891 8.84766 4.13672C8.56641 4.13672 8.30078 4.14844 8.05078 4.17188C7.80859 4.19531 7.59375 4.23047 7.40625 4.27734C7.22656 4.32422 7.10156 4.39063 7.03125 4.47656C6.98438 4.53906 6.92969 4.64844 6.86719 4.80469C6.80469 4.96094 6.74219 5.14453 6.67969 5.35547C6.61719 5.55859 6.55469 5.77344 6.49219 6C6.42969 6.22656 6.37109 6.44531 6.31641 6.65625C6.21484 7.02344 6.10938 7.43359 6 7.88672C5.89062 8.33203 5.77734 8.79688 5.66016 9.28125C5.54297 9.76562 5.42578 10.2578 5.30859 10.7578C5.19922 11.2578 5.09375 11.7461 4.99219 12.2227C4.89844 12.6914 4.8125 13.1445 4.73438 13.582C4.66406 14.0117 4.60938 14.3984 4.57031 14.7422C4.75781 14.7266 4.98438 14.6992 5.25 14.6602C5.51562 14.6133 5.74609 14.5898 5.94141 14.5898ZM28.9279 11.0156C29.2716 10.9297 29.6193 10.8398 29.9708 10.7461C30.3302 10.6523 30.6623 10.5586 30.9669 10.4648C30.8419 10.082 30.713 9.68359 30.5802 9.26953C30.4474 8.85547 30.3068 8.44531 30.1583 8.03906C30.0177 7.625 29.8732 7.22656 29.7248 6.84375C29.5763 6.45312 29.4201 6.09766 29.256 5.77734C28.5919 6.68359 27.924 7.63672 27.2521 8.63672C26.588 9.63672 25.9552 10.6562 25.3537 11.6953C25.588 11.6719 25.8341 11.6562 26.0919 11.6484C26.3498 11.6328 26.5568 11.6016 26.713 11.5547C26.924 11.4922 27.1115 11.4375 27.2755 11.3906C27.4474 11.3438 27.6154 11.3008 27.7794 11.2617C27.9513 11.2227 28.1271 11.1836 28.3068 11.1445C28.4865 11.1055 28.6935 11.0625 28.9279 11.0156ZM36.756 16.9219C36.756 17.1172 36.7169 17.3008 36.6388 17.4727C36.5685 17.6445 36.4669 17.7969 36.3341 17.9297C36.2091 18.0547 36.0529 18.1562 35.8654 18.2344C35.6857 18.3125 35.4904 18.3516 35.2794 18.3516C35.0841 18.3516 34.8927 18.2891 34.7052 18.1641C34.5177 18.0391 34.3341 17.8789 34.1544 17.6836C33.9826 17.4883 33.8146 17.2695 33.6505 17.0273C33.4943 16.7773 33.3498 16.5273 33.2169 16.2773C33.0919 16.0273 32.9787 15.7891 32.8771 15.5625C32.7755 15.3359 32.6935 15.1484 32.631 15C32.5451 14.7891 32.4591 14.5938 32.3732 14.4141C32.2873 14.2344 32.1974 14.0039 32.1037 13.7227C32.049 13.5664 32.006 13.4492 31.9748 13.3711C31.9513 13.293 31.9279 13.2344 31.9044 13.1953C31.8888 13.1484 31.8732 13.1133 31.8576 13.0898C31.8498 13.0586 31.838 13.0156 31.8224 12.9609C31.6662 13.0312 31.4982 13.0742 31.3185 13.0898C31.1388 13.0977 30.9396 13.1016 30.7208 13.1016C30.6818 13.1016 30.6154 13.1172 30.5216 13.1484C30.4279 13.1719 30.3185 13.2031 30.1935 13.2422C30.0763 13.2812 29.9513 13.3242 29.8185 13.3711C29.6935 13.4102 29.5724 13.4453 29.4552 13.4766C29.0802 13.5703 28.674 13.6602 28.2365 13.7461C27.799 13.832 27.3419 13.918 26.8654 14.0039C26.3888 14.082 25.9005 14.1641 25.4005 14.25C24.9083 14.3281 24.4123 14.4102 23.9123 14.4961C23.8576 14.5039 23.8107 14.5195 23.7716 14.543C23.7326 14.5664 23.6779 14.6289 23.6076 14.7305C23.5373 14.8242 23.4318 14.9727 23.2912 15.1758C23.1505 15.3789 22.9513 15.668 22.6935 16.043C22.3966 16.4727 22.1154 16.8477 21.8498 17.168C21.5841 17.4805 21.3341 17.75 21.0998 17.9766C20.8732 18.2031 20.631 18.375 20.3732 18.4922C20.1232 18.6094 19.8615 18.668 19.588 18.668C19.2287 18.668 18.9083 18.6211 18.6271 18.5273C18.3458 18.4414 18.1076 18.3281 17.9123 18.1875C17.7248 18.0469 17.5802 17.8945 17.4787 17.7305C17.3849 17.5664 17.338 17.4141 17.338 17.2734C17.338 17.0078 17.4513 16.8242 17.6779 16.7227C17.9044 16.6133 18.2169 16.5234 18.6154 16.4531C18.6154 16.4453 18.6583 16.3867 18.7443 16.2773C18.8302 16.168 18.9318 16.043 19.049 15.9023C19.1662 15.7617 19.2794 15.625 19.3888 15.4922C19.506 15.3516 19.588 15.2461 19.6349 15.1758C19.9396 14.7539 20.256 14.3164 20.5841 13.8633C20.9201 13.4023 21.2873 12.875 21.6857 12.2812V12.293C21.8888 11.9961 22.0529 11.75 22.1779 11.5547C22.3107 11.3594 22.4357 11.1758 22.5529 11.0039C22.6701 10.832 22.7912 10.6562 22.9162 10.4766C23.049 10.2969 23.2091 10.0742 23.3966 9.80859C23.881 9.12891 24.3029 8.55469 24.6623 8.08594C25.0294 7.60938 25.3302 7.21484 25.5646 6.90234C25.8458 6.46484 26.1115 6.04688 26.3615 5.64844C26.4708 5.47656 26.5763 5.30469 26.6779 5.13281C26.7794 4.95313 26.8771 4.78125 26.9708 4.61719C27.0646 4.45312 27.1466 4.30078 27.2169 4.16016C27.2951 4.01172 27.3537 3.88672 27.3927 3.78516C28.3224 1.51172 29.1193 0.375 29.7833 0.375C30.0724 0.375 30.3068 0.398438 30.4865 0.445312C30.6662 0.484375 30.8029 0.558594 30.8966 0.667969C30.9982 0.769531 31.0646 0.90625 31.0958 1.07812C31.1349 1.25 31.1544 1.46484 31.1544 1.72266C31.1544 1.96484 31.1544 2.15625 31.1544 2.29688C31.1544 2.42969 31.1505 2.54687 31.1427 2.64844C31.1349 2.75 31.1271 2.85156 31.1193 2.95312C31.1193 3.05469 31.1115 3.19141 31.0958 3.36328C31.2833 3.76172 31.463 4.17188 31.6349 4.59375C31.8146 5.01562 31.9826 5.43359 32.1388 5.84766C32.1701 5.94141 32.2365 6.14062 32.338 6.44531C32.4474 6.74219 32.5724 7.09375 32.713 7.5C32.8615 7.90625 33.0138 8.33594 33.1701 8.78906C33.3341 9.24219 33.4826 9.66797 33.6154 10.0664C33.756 10.4648 33.8771 10.8086 33.9787 11.0977C34.0802 11.3867 34.1466 11.5703 34.1779 11.6484C34.2794 12.0859 34.5646 12.8086 35.0333 13.8164C35.0958 13.9414 35.1466 14.0508 35.1857 14.1445C35.2326 14.2383 35.2833 14.3359 35.338 14.4375C35.4005 14.5391 35.4787 14.6562 35.5724 14.7891C35.6662 14.9219 35.7912 15.0938 35.9474 15.3047C36.4865 16.0391 36.756 16.5781 36.756 16.9219ZM53.4964 3.52734C53.4964 4.16797 52.9729 5.44531 51.9261 7.35938C51.6448 7.85938 51.3362 8.375 51.0003 8.90625C50.6878 9.40625 50.387 9.86328 50.0979 10.2773C49.8167 10.6914 49.5198 11.125 49.2073 11.5781C48.9886 11.9062 48.7659 12.2344 48.5393 12.5625C48.3128 12.8828 48.0745 13.2188 47.8245 13.5703C47.5979 13.8984 47.387 14.2109 47.1917 14.5078C46.9964 14.7969 46.8284 15.0547 46.6878 15.2812C46.4143 15.7266 46.1604 16.1914 45.9261 16.6758C45.6995 17.1523 45.5315 17.6406 45.4222 18.1406C45.055 18.1406 44.719 18.125 44.4143 18.0938C44.1097 18.0625 43.8323 18.0117 43.5823 17.9414C43.4104 17.8945 43.219 17.7344 43.0081 17.4609C42.7972 17.1875 42.5745 16.8203 42.3401 16.3594C42.2386 16.1484 42.1253 15.918 42.0003 15.668C41.8753 15.4102 41.7464 15.1406 41.6136 14.8594C41.4808 14.5781 41.3479 14.293 41.2151 14.0039C41.0901 13.707 40.969 13.418 40.8518 13.1367C40.594 12.5195 40.3284 11.8906 40.055 11.25C39.7893 10.6016 39.5315 9.95703 39.2815 9.31641C38.7659 7.98047 38.5003 7.30469 38.4847 7.28906C38.1331 6.44531 37.8089 5.68359 37.512 5.00391C37.2151 4.32422 36.9456 3.71484 36.7034 3.17578C36.43 2.57422 36.2425 1.90234 36.1409 1.16016C36.4222 0.550781 36.8518 0.246094 37.43 0.246094C37.7659 0.246094 38.1526 0.40625 38.5901 0.726562C38.6058 0.742187 38.6409 0.816406 38.6956 0.949219C38.7581 1.08203 38.8323 1.26172 38.9183 1.48828C38.9964 1.69141 39.0901 1.92969 39.1995 2.20312C39.3167 2.47656 39.4534 2.79688 39.6097 3.16406C39.7737 3.57031 39.9495 4.00391 40.137 4.46484C40.3323 4.91797 40.5276 5.37891 40.7229 5.84766C40.8948 6.26172 41.0628 6.71094 41.2268 7.19531C41.3909 7.67969 41.5667 8.15625 41.7542 8.625C42.2542 9.875 42.6995 11.0352 43.0901 12.1055C43.4886 13.1758 43.8909 14.1367 44.2972 14.9883C44.5081 14.5664 44.7659 14.1211 45.0706 13.6523C45.3753 13.1836 45.6878 12.7109 46.0081 12.2344C46.3362 11.7578 46.6565 11.2852 46.969 10.8164C47.2815 10.3477 47.5589 9.91016 47.8011 9.50391C48.1292 8.94922 48.3909 8.45703 48.5862 8.02734C48.7893 7.59766 48.9886 7.19531 49.1839 6.82031C49.4964 6.21875 49.8753 5.42578 50.3206 4.44141C50.5472 3.94922 50.7464 3.50781 50.9183 3.11719C51.0979 2.71875 51.2464 2.37109 51.3636 2.07422C51.4417 1.88672 51.5472 1.74609 51.68 1.65234C51.8128 1.55078 51.9847 1.5 52.1956 1.5C52.6956 1.5 53.0667 1.76953 53.3089 2.30859C53.4026 2.51172 53.4573 2.72266 53.4729 2.94141C53.4886 3.16016 53.4964 3.35547 53.4964 3.52734ZM71.0922 1.66406C71.0922 1.74219 71.0688 1.84766 71.0219 1.98047C70.9828 2.10547 70.9243 2.23438 70.8461 2.36719C70.7758 2.5 70.6938 2.625 70.6 2.74219C70.5063 2.85156 70.4086 2.92969 70.3071 2.97656C70.1039 3.07813 69.9047 3.15234 69.7094 3.19922C69.5219 3.24609 69.2914 3.29687 69.018 3.35156C68.2993 3.49219 67.5961 3.60938 66.9086 3.70312C66.2211 3.79688 65.5688 3.875 64.9516 3.9375C64.3422 3.99219 63.7836 4.03125 63.2758 4.05469C62.768 4.07812 62.3383 4.08984 61.9868 4.08984H60.2524C60.0024 4.08984 59.7719 4.08984 59.561 4.08984C59.35 4.08984 59.1469 4.08203 58.9516 4.06641C58.9282 4.32422 58.9047 4.63672 58.8813 5.00391C58.8657 5.37109 58.8461 5.74609 58.8227 6.12891C58.7993 6.51172 58.7758 6.88281 58.7524 7.24219C58.7289 7.59375 58.6977 7.89062 58.6586 8.13281C58.8696 8.15625 59.1157 8.17188 59.3969 8.17969C59.686 8.1875 59.9633 8.19141 60.2289 8.19141C60.6118 8.19141 60.9907 8.17969 61.3657 8.15625C61.7485 8.125 62.0649 8.09766 62.3149 8.07422C62.4399 8.05859 62.6352 8.04297 62.9008 8.02734C63.1664 8.01172 63.4477 7.99219 63.7446 7.96875C64.0493 7.94531 64.3422 7.91797 64.6235 7.88672C64.9125 7.85547 65.1391 7.82031 65.3032 7.78125C65.4594 7.71094 65.6039 7.64844 65.7368 7.59375C65.8774 7.53906 66.0102 7.49609 66.1352 7.46484C66.268 7.42578 66.4008 7.39844 66.5336 7.38281C66.6743 7.36719 66.8227 7.35938 66.9789 7.35938C67.1899 7.35938 67.3657 7.40234 67.5063 7.48828C67.6469 7.56641 67.7563 7.67578 67.8344 7.81641C67.9125 7.94922 67.9672 8.10547 67.9985 8.28516C68.0297 8.45703 68.0453 8.63672 68.0453 8.82422C68.0453 9.05859 67.9789 9.25 67.8461 9.39844C67.7211 9.54688 67.5649 9.67188 67.3774 9.77344C67.1899 9.86719 66.9907 9.94141 66.7797 9.99609C66.5766 10.043 66.4008 10.082 66.2524 10.1133C66.1196 10.1445 65.8813 10.1758 65.5375 10.207C65.2016 10.2383 64.811 10.2734 64.3657 10.3125C63.9203 10.3438 63.4477 10.375 62.9477 10.4062C62.4555 10.4375 61.9868 10.4648 61.5414 10.4883C61.0961 10.5039 60.6977 10.5195 60.3461 10.5352C60.0024 10.5508 59.7563 10.5586 59.6078 10.5586C59.3657 10.5586 59.143 10.5781 58.9399 10.6172C58.7368 10.6562 58.5219 10.707 58.2953 10.7695C58.2016 11.1445 58.1274 11.5508 58.0727 11.9883C58.018 12.4258 57.936 12.8828 57.8266 13.3594C57.7875 13.5469 57.7446 13.7383 57.6977 13.9336C57.6586 14.1289 57.6196 14.3164 57.5805 14.4961C57.5493 14.668 57.5219 14.8281 57.4985 14.9766C57.475 15.125 57.4594 15.2461 57.4516 15.3398C57.6157 15.3398 57.8032 15.3359 58.0141 15.3281C58.2328 15.3203 58.4594 15.3086 58.6938 15.293C58.9282 15.2773 59.1625 15.2617 59.3969 15.2461C59.6391 15.2227 59.8657 15.1992 60.0766 15.1758C60.6313 15.1289 61.1039 15.0898 61.4946 15.0586C61.893 15.0195 62.2485 14.9883 62.561 14.9648C62.8813 14.9336 63.1743 14.9023 63.4399 14.8711C63.7133 14.8398 64.0063 14.8008 64.3188 14.7539C64.4828 14.7305 64.6782 14.707 64.9047 14.6836C65.1391 14.6602 65.3774 14.6367 65.6196 14.6133C65.8696 14.582 66.1157 14.5508 66.3578 14.5195C66.6078 14.4805 66.8344 14.4336 67.0375 14.3789C67.1625 14.3477 67.2875 14.3086 67.4125 14.2617C67.5453 14.207 67.6782 14.1562 67.811 14.1094C67.9438 14.0625 68.0766 14.0234 68.2094 13.9922C68.35 13.9609 68.4907 13.9453 68.6313 13.9453C68.7953 13.9453 68.9516 13.9805 69.1 14.0508C69.2563 14.1211 69.393 14.2188 69.5102 14.3438C69.6274 14.4688 69.7211 14.6211 69.7914 14.8008C69.8618 14.9727 69.8969 15.1602 69.8969 15.3633C69.8969 15.4336 69.8578 15.5352 69.7797 15.668C69.7094 15.793 69.6078 15.9219 69.475 16.0547C69.35 16.1797 69.1977 16.2969 69.018 16.4062C68.8383 16.5156 68.643 16.5898 68.4321 16.6289C67.7446 16.7617 67.0532 16.8672 66.3578 16.9453C65.6625 17.0156 64.8969 17.1055 64.061 17.2148C63.4594 17.2852 62.8578 17.3555 62.2563 17.4258C61.6547 17.4961 61.0961 17.5664 60.5805 17.6367C60.0649 17.6992 59.6118 17.7578 59.2211 17.8125C58.8305 17.8594 58.5414 17.9023 58.3539 17.9414C58.1743 17.9727 57.9828 18.0156 57.7797 18.0703C57.5766 18.1328 57.3696 18.1914 57.1586 18.2461C56.9555 18.3008 56.7602 18.3477 56.5727 18.3867C56.3852 18.4258 56.2172 18.4453 56.0688 18.4453H56.0453C55.7641 18.4453 55.518 18.4102 55.3071 18.3398C55.0961 18.2773 54.9203 18.1641 54.7797 18C54.6391 17.8281 54.5297 17.6016 54.4516 17.3203C54.3813 17.0312 54.3461 16.6719 54.3461 16.2422C54.3461 15.9062 54.3891 15.5352 54.475 15.1289C54.5688 14.7148 54.6703 14.2227 54.7797 13.6523C54.8891 13.1055 54.9946 12.6055 55.0961 12.1523C55.1977 11.6992 55.2914 11.2578 55.3774 10.8281C55.4711 10.3984 55.5532 9.97266 55.6235 9.55078C55.7016 9.12109 55.7602 8.66016 55.7993 8.16797C55.8071 8.11328 55.8188 7.98047 55.8344 7.76953C55.85 7.55859 55.8657 7.30859 55.8813 7.01953C55.9047 6.73047 55.9282 6.42188 55.9516 6.09375C55.975 5.76562 55.9985 5.45703 56.0219 5.16797C56.0453 4.87891 56.061 4.62891 56.0688 4.41797C56.0844 4.20703 56.0922 4.07031 56.0922 4.00781C56.0922 3.95312 56.0844 3.875 56.0688 3.77344C56.0532 3.67187 56.0453 3.58984 56.0453 3.52734C56.0453 3.34766 56.0766 3.15234 56.1391 2.94141C56.2094 2.72266 56.3149 2.5 56.4555 2.27344C56.5258 2.15625 56.6469 2.03906 56.8188 1.92188C56.9907 1.79687 57.1782 1.68359 57.3813 1.58203C57.5844 1.48047 57.7875 1.39844 57.9907 1.33594C58.2016 1.27344 58.3813 1.24219 58.5297 1.24219C58.6157 1.24219 58.7485 1.25781 58.9282 1.28906C59.1157 1.32031 59.3071 1.35547 59.5024 1.39453C59.7055 1.43359 59.8969 1.46875 60.0766 1.5C60.2563 1.53125 60.3852 1.54688 60.4633 1.54688C60.643 1.54688 60.8852 1.55078 61.1899 1.55859C61.5024 1.56641 61.8422 1.57031 62.2094 1.57031C62.8969 1.57031 63.5883 1.54688 64.2836 1.5C64.9868 1.44531 65.6977 1.35938 66.4164 1.24219C66.7368 1.1875 67.0375 1.11719 67.3188 1.03125C67.6 0.945313 67.8735 0.863281 68.1391 0.785156C68.4125 0.699219 68.686 0.628906 68.9594 0.574219C69.2328 0.511719 69.5219 0.480469 69.8266 0.480469C69.975 0.480469 70.1235 0.515625 70.2719 0.585938C70.4203 0.648437 70.5532 0.738281 70.6703 0.855469C70.7953 0.964844 70.8969 1.08984 70.975 1.23047C71.0532 1.37109 71.0922 1.51562 71.0922 1.66406ZM15.1289 35.4414C15.1289 35.8945 15.0156 36.3242 14.7891 36.7305C14.5703 37.1289 14.2695 37.5039 13.8867 37.8555C13.5039 38.1992 13.0586 38.5195 12.5508 38.8164C12.043 39.1055 11.5039 39.3672 10.9336 39.6016C10.3711 39.8359 9.78906 40.043 9.1875 40.2227C8.59375 40.4023 8.01562 40.5508 7.45312 40.668C6.89844 40.7852 6.375 40.875 5.88281 40.9375C5.39844 41 4.98047 41.0312 4.62891 41.0312C4.55078 41.0312 4.44922 41.0273 4.32422 41.0195C4.19922 41.0117 4.07031 41 3.9375 40.9844C3.80469 40.9688 3.67578 40.9531 3.55078 40.9375C3.43359 40.9219 3.33594 40.9062 3.25781 40.8906C3.10938 40.8594 2.92578 40.8125 2.70703 40.75C2.49609 40.6953 2.27344 40.625 2.03906 40.5391C1.8125 40.4609 1.58594 40.3672 1.35938 40.2578C1.13281 40.1562 0.929688 40.0469 0.75 39.9297C0.570312 39.8047 0.425781 39.6758 0.316406 39.543C0.207031 39.4023 0.152344 39.2578 0.152344 39.1094C0.152344 39.0625 0.171875 38.9805 0.210938 38.8633C0.25 38.7383 0.300781 38.6133 0.363281 38.4883C0.425781 38.3555 0.496094 38.2422 0.574219 38.1484C0.660156 38.0469 0.742188 37.9961 0.820312 37.9961C0.96875 37.9961 1.16406 38.0391 1.40625 38.125C1.65625 38.2031 1.92969 38.2891 2.22656 38.3828C2.53125 38.4766 2.84766 38.5664 3.17578 38.6523C3.51172 38.7305 3.83984 38.7695 4.16016 38.7695C4.55859 38.7695 4.98438 38.7422 5.4375 38.6875C5.89844 38.6328 6.37109 38.5586 6.85547 38.4648C7.33984 38.3633 7.82422 38.2422 8.30859 38.1016C8.79297 37.9531 9.25781 37.7891 9.70312 37.6094C10.1484 37.4297 10.5625 37.2344 10.9453 37.0234C11.3281 36.8125 11.6602 36.5859 11.9414 36.3438C11.9805 36.3047 12.0234 36.2539 12.0703 36.1914C12.1172 36.1289 12.1641 36.0625 12.2109 35.9922C12.2578 35.9219 12.2969 35.8516 12.3281 35.7812C12.3594 35.7109 12.375 35.6523 12.375 35.6055C12.375 35.3086 12.2734 35.0469 12.0703 34.8203C11.8672 34.5859 11.5742 34.3711 11.1914 34.1758C10.8086 33.9805 10.3477 33.793 9.80859 33.6133C9.26953 33.4258 8.66406 33.2305 7.99219 33.0273C7.53125 32.8867 7.05859 32.7344 6.57422 32.5703C6.08984 32.4062 5.61719 32.2227 5.15625 32.0195C4.69531 31.8086 4.26172 31.5703 3.85547 31.3047C3.44922 31.0391 3.09375 30.7344 2.78906 30.3906C2.48438 30.0469 2.24219 29.6602 2.0625 29.2305C1.88281 28.793 1.79297 28.2969 1.79297 27.7422C1.79297 27.4141 1.875 27.1016 2.03906 26.8047C2.20312 26.5078 2.41797 26.2266 2.68359 25.9609C2.95703 25.6875 3.26562 25.4375 3.60938 25.2109C3.95312 24.9844 4.30078 24.7812 4.65234 24.6016C5.00391 24.4141 5.34375 24.2578 5.67188 24.1328C6 24 6.28516 23.9023 6.52734 23.8398C6.88672 23.7461 7.22266 23.6641 7.53516 23.5938C7.84766 23.5234 8.15625 23.4648 8.46094 23.418C8.77344 23.3711 9.08984 23.3359 9.41016 23.3125C9.73828 23.2891 10.0898 23.2773 10.4648 23.2773C10.6055 23.2773 10.8008 23.2852 11.0508 23.3008C11.3086 23.3086 11.5859 23.332 11.8828 23.3711C12.1875 23.4023 12.4961 23.4531 12.8086 23.5234C13.1289 23.5938 13.418 23.6875 13.6758 23.8047C13.9336 23.9219 14.1445 24.0664 14.3086 24.2383C14.4727 24.4102 14.5547 24.6133 14.5547 24.8477C14.5547 25.082 14.4883 25.332 14.3555 25.5977C14.2305 25.8555 14.0664 26.1094 13.8633 26.3594C13.668 26.6016 13.4492 26.8281 13.207 27.0391C12.9648 27.25 12.7266 27.4297 12.4922 27.5781C12.2578 27.7266 12.043 27.832 11.8477 27.8945C11.6602 27.957 11.5156 27.957 11.4141 27.8945C11.2891 27.8164 11.2109 27.7031 11.1797 27.5547C11.1484 27.4062 11.1484 27.2422 11.1797 27.0625C11.2188 26.8828 11.2773 26.6953 11.3555 26.5C11.4336 26.2969 11.5156 26.1094 11.6016 25.9375C11.5 25.875 11.3516 25.8203 11.1562 25.7734C10.9609 25.7188 10.75 25.6758 10.5234 25.6445C10.2969 25.6055 10.0703 25.5781 9.84375 25.5625C9.625 25.5469 9.4375 25.5391 9.28125 25.5391C9.07031 25.5391 8.8125 25.5625 8.50781 25.6094C8.20312 25.6484 7.87891 25.7109 7.53516 25.7969C7.19922 25.8828 6.86328 25.9922 6.52734 26.125C6.19141 26.25 5.88672 26.4023 5.61328 26.582C5.34766 26.7617 5.12891 26.9648 4.95703 27.1914C4.79297 27.418 4.71094 27.6719 4.71094 27.9531C4.71094 28.2266 4.85547 28.4961 5.14453 28.7617C5.44141 29.0273 5.81641 29.2852 6.26953 29.5352C6.73047 29.7852 7.24219 30.0234 7.80469 30.25C8.36719 30.4766 8.91406 30.6875 9.44531 30.8828C9.98438 31.0703 10.4766 31.2383 10.9219 31.3867C11.375 31.5352 11.7188 31.6602 11.9531 31.7617C12.4297 31.9648 12.8633 32.168 13.2539 32.3711C13.6445 32.5664 13.9766 32.8008 14.25 33.0742C14.5312 33.3398 14.7461 33.6602 14.8945 34.0352C15.0508 34.4102 15.1289 34.8789 15.1289 35.4414ZM34.6349 28.9141C34.6349 30.0859 34.4279 31.2109 34.0138 32.2891C33.6076 33.3594 33.0021 34.3633 32.1974 35.3008C31.3927 36.2305 30.3927 37.0742 29.1974 37.832C28.0021 38.5898 26.6193 39.2383 25.049 39.7773C24.9083 39.8242 24.7443 39.8711 24.5568 39.918C24.3693 39.957 24.1857 39.9883 24.006 40.0117C23.8263 40.043 23.6583 40.0664 23.5021 40.082C23.3537 40.1055 23.2443 40.1172 23.174 40.1172C22.463 40.1172 21.7833 40.0586 21.1349 39.9414C20.4943 39.8242 19.9005 39.6367 19.3537 39.3789C18.8068 39.1133 18.3146 38.7695 17.8771 38.3477C17.4396 37.918 17.0685 37.3945 16.7638 36.7773C16.5685 36.3789 16.4357 36 16.3654 35.6406C16.2951 35.2812 16.2599 34.9141 16.2599 34.5391C16.2599 34.0391 16.338 33.4766 16.4943 32.8516C16.6583 32.2188 16.8888 31.5625 17.1857 30.8828C17.4826 30.1953 17.838 29.5 18.2521 28.7969C18.674 28.0859 19.1388 27.4023 19.6466 26.7461C20.1623 26.082 20.7169 25.4609 21.3107 24.8828C21.9044 24.2969 22.5255 23.7891 23.174 23.3594C23.8302 22.9219 24.5021 22.5781 25.1896 22.3281C25.8849 22.0781 26.588 21.9531 27.299 21.9531C27.4083 21.9531 27.5412 21.9922 27.6974 22.0703C27.8537 22.1406 28.0216 22.2266 28.2013 22.3281C28.3888 22.4219 28.5763 22.5156 28.7638 22.6094C28.9513 22.7031 29.131 22.7734 29.3029 22.8203C29.7091 22.9297 30.1232 23.1016 30.5451 23.3359C30.9669 23.5703 31.3732 23.8516 31.7638 24.1797C32.1623 24.5 32.5333 24.8555 32.8771 25.2461C33.2287 25.6367 33.5333 26.043 33.7912 26.4648C34.049 26.8789 34.2521 27.2969 34.4005 27.7188C34.5568 28.1328 34.6349 28.5312 34.6349 28.9141ZM32.0802 29.7109C32.0802 29.4531 32.0607 29.1641 32.0216 28.8438C31.9826 28.5234 31.9005 28.1953 31.7755 27.8594C31.6505 27.5234 31.4708 27.1875 31.2365 26.8516C31.0099 26.5156 30.7052 26.2031 30.3224 25.9141C30.2677 25.875 30.1818 25.8164 30.0646 25.7383C29.9552 25.6523 29.838 25.5703 29.713 25.4922C29.5958 25.4141 29.4826 25.3477 29.3732 25.293C29.2638 25.2305 29.1857 25.1992 29.1388 25.1992C29.0919 25.1992 29.049 25.207 29.0099 25.2227C28.9708 25.2383 28.9162 25.2578 28.8458 25.2812C28.7755 25.2969 28.6818 25.3125 28.5646 25.3281C28.4552 25.3438 28.3068 25.3516 28.1193 25.3516C27.9787 25.3516 27.8576 25.3281 27.756 25.2812C27.6623 25.2266 27.5724 25.1719 27.4865 25.1172C27.4318 25.0781 27.381 25.0469 27.3341 25.0234C27.2873 25 27.2638 24.9844 27.2638 24.9766C27.1544 24.9688 27.0529 24.9648 26.9591 24.9648C26.8654 24.957 26.7755 24.9531 26.6896 24.9531C26.588 24.9531 26.4865 24.957 26.3849 24.9648C26.2912 24.9727 26.1818 24.9883 26.0568 25.0117C25.9396 25.0273 25.8029 25.0547 25.6466 25.0938C25.4982 25.125 25.3185 25.168 25.1076 25.2227C24.8654 25.2852 24.5919 25.4258 24.2873 25.6445C23.9904 25.8555 23.674 26.1289 23.338 26.4648C23.0099 26.793 22.674 27.168 22.3302 27.5898C21.9865 28.0039 21.6544 28.4453 21.3341 28.9141C21.0138 29.375 20.7091 29.8516 20.4201 30.3438C20.1388 30.8359 19.8888 31.3203 19.6701 31.7969C19.4591 32.2656 19.2912 32.7148 19.1662 33.1445C19.049 33.5742 18.9904 33.9648 18.9904 34.3164C18.9904 34.9258 19.131 35.4453 19.4123 35.875C19.6935 36.3047 20.049 36.6562 20.4787 36.9297C20.9162 37.2031 21.3966 37.4023 21.9201 37.5273C22.4513 37.6523 22.963 37.7148 23.4552 37.7148C23.9396 37.7148 24.4904 37.5977 25.1076 37.3633C25.7248 37.1211 26.3537 36.7969 26.9943 36.3906C27.6349 35.9844 28.2599 35.5156 28.8693 34.9844C29.4787 34.4453 30.0216 33.8789 30.4982 33.2852C30.9748 32.6914 31.3576 32.0898 31.6466 31.4805C31.9357 30.8633 32.0802 30.2734 32.0802 29.7109ZM53.9534 22.8672C53.9534 23.2188 53.9222 23.543 53.8597 23.8398C53.7972 24.1367 53.7464 24.4258 53.7073 24.707C53.6995 24.7617 53.68 24.8828 53.6487 25.0703C53.6175 25.25 53.5823 25.4648 53.5433 25.7148C53.5042 25.957 53.4573 26.2188 53.4026 26.5C53.3558 26.7812 53.3089 27.0547 53.262 27.3203C53.2229 27.5859 53.1839 27.8281 53.1448 28.0469C53.1136 28.2578 53.0901 28.418 53.0745 28.5273C53.0511 28.707 53.0042 29.0156 52.9339 29.4531C52.8714 29.8828 52.7972 30.3789 52.7112 30.9414C52.6331 31.5039 52.5472 32.1016 52.4534 32.7344C52.3597 33.3672 52.2737 33.9727 52.1956 34.5508C52.1253 35.1211 52.0628 35.6328 52.0081 36.0859C51.9534 36.5312 51.9222 36.8555 51.9143 37.0586C51.9143 37.1055 51.9183 37.1641 51.9261 37.2344C51.9339 37.2969 51.9417 37.3828 51.9495 37.4922C51.9651 37.6016 51.9768 37.7383 51.9847 37.9023C51.9925 38.0664 51.9964 38.2656 51.9964 38.5C51.9964 38.5781 51.9651 38.6836 51.9026 38.8164C51.8479 38.9414 51.7698 39.0664 51.6683 39.1914C51.5745 39.3086 51.4573 39.4102 51.3167 39.4961C51.1761 39.582 51.0237 39.625 50.8597 39.625C50.555 39.625 50.2854 39.5898 50.0511 39.5195C49.8167 39.4492 49.6058 39.3398 49.4183 39.1914C49.2308 39.043 49.055 38.8594 48.8909 38.6406C48.7268 38.4219 48.5628 38.168 48.3987 37.8789C48.1253 37.3945 47.8206 36.8906 47.4847 36.3672C47.1487 35.8438 46.8011 35.3281 46.4417 34.8203C46.0823 34.3047 45.7229 33.8164 45.3636 33.3555C45.0042 32.8867 44.6643 32.4727 44.344 32.1133C44.2737 32.0352 44.1565 31.9102 43.9925 31.7383C43.8362 31.5586 43.6487 31.3516 43.43 31.1172C43.219 30.8828 42.9847 30.6328 42.7268 30.3672C42.4768 30.0938 42.2268 29.8242 41.9768 29.5586C41.7268 29.293 41.4847 29.0391 41.2503 28.7969C41.0159 28.5469 40.8089 28.332 40.6292 28.1523C40.6136 28.2305 40.5823 28.3828 40.5354 28.6094C40.4886 28.8359 40.4339 29.1094 40.3714 29.4297C40.3089 29.7422 40.2386 30.0898 40.1604 30.4727C40.0823 30.8477 40.0042 31.2305 39.9261 31.6211C39.8479 32.0039 39.7737 32.375 39.7034 32.7344C39.6331 33.0938 39.5667 33.418 39.5042 33.707C39.4495 33.9883 39.4026 34.2188 39.3636 34.3984C39.3323 34.5703 39.3167 34.6641 39.3167 34.6797C39.137 35.75 39.0042 36.6875 38.9183 37.4922C38.8401 38.2891 38.8011 39.0078 38.8011 39.6484C38.8011 39.7734 38.8011 39.8984 38.8011 40.0234C38.8089 40.1484 38.8167 40.2656 38.8245 40.375C38.8011 40.4297 38.7425 40.5 38.6487 40.5859C38.555 40.6797 38.4495 40.7695 38.3323 40.8555C38.2151 40.9414 38.094 41.0156 37.969 41.0781C37.8518 41.1406 37.7503 41.1719 37.6643 41.1719C37.3284 41.1719 37.055 41.1289 36.844 41.043C36.6409 40.9648 36.4808 40.832 36.3636 40.6445C36.2464 40.457 36.1683 40.2148 36.1292 39.918C36.0901 39.6211 36.0706 39.2578 36.0706 38.8281C36.0706 38.4141 36.1058 37.9609 36.1761 37.4688C36.2542 36.9766 36.3401 36.4688 36.4339 35.9453C36.4573 35.8281 36.5042 35.6172 36.5745 35.3125C36.6448 35 36.7308 34.6328 36.8323 34.2109C36.9339 33.7812 37.0433 33.3125 37.1604 32.8047C37.2854 32.2969 37.4104 31.7852 37.5354 31.2695C37.6683 30.7461 37.7933 30.2344 37.9104 29.7344C38.0276 29.2344 38.1331 28.7812 38.2268 28.375C38.3284 27.9688 38.4104 27.625 38.4729 27.3438C38.5354 27.0625 38.5706 26.8828 38.5784 26.8047C38.6175 26.4609 38.6722 26.1016 38.7425 25.7266C38.8206 25.3438 38.9222 24.9961 39.0472 24.6836C39.18 24.3633 39.3479 24.0977 39.5511 23.8867C39.7542 23.6758 40.0003 23.5703 40.2893 23.5703C40.5862 23.5703 40.8518 23.6602 41.0862 23.8398C41.3206 24.0117 41.4534 24.2422 41.4847 24.5312C41.4847 24.5703 41.4808 24.6133 41.4729 24.6602C41.4729 24.707 41.4651 24.7695 41.4495 24.8477C41.4495 24.918 41.5081 25.0234 41.6253 25.1641C41.7425 25.3047 41.8831 25.457 42.0472 25.6211C42.2112 25.7852 42.3753 25.9492 42.5393 26.1133C42.7112 26.2695 42.8479 26.4023 42.9495 26.5117C42.9886 26.5508 43.0745 26.6484 43.2073 26.8047C43.3479 26.9609 43.512 27.1484 43.6995 27.3672C43.887 27.5859 44.0901 27.8242 44.3089 28.082C44.5276 28.332 44.7386 28.5781 44.9417 28.8203C45.1448 29.0547 45.3284 29.2656 45.4925 29.4531C45.6565 29.6406 45.7776 29.7812 45.8558 29.875C46.0823 30.1328 46.3167 30.418 46.5589 30.7305C46.8011 31.0352 47.0393 31.3438 47.2737 31.6562C47.5081 31.9688 47.7308 32.2773 47.9417 32.582C48.1526 32.8789 48.3401 33.1562 48.5042 33.4141C48.5745 33.5234 48.6604 33.6641 48.762 33.8359C48.8714 34 48.9847 34.1758 49.1018 34.3633C49.219 34.5508 49.3323 34.7383 49.4417 34.9258C49.5589 35.1133 49.6643 35.2852 49.7581 35.4414C49.7581 35.4102 49.7659 35.2852 49.7815 35.0664C49.805 34.8477 49.8362 34.5703 49.8753 34.2344C49.9143 33.8906 49.9573 33.5078 50.0042 33.0859C50.0589 32.6562 50.1097 32.2188 50.1565 31.7734C50.2112 31.3203 50.2659 30.8789 50.3206 30.4492C50.3753 30.0117 50.4222 29.6133 50.4612 29.2539C50.5081 28.8945 50.5472 28.5938 50.5784 28.3516C50.6175 28.1094 50.6409 27.9531 50.6487 27.8828C50.6565 27.8203 50.6722 27.6836 50.6956 27.4727C50.719 27.2617 50.7464 27.0117 50.7776 26.7227C50.8167 26.4258 50.8518 26.1094 50.8831 25.7734C50.9222 25.4375 50.9573 25.1172 50.9886 24.8125C51.0198 24.5 51.0472 24.2227 51.0706 23.9805C51.1018 23.7305 51.1253 23.5469 51.1409 23.4297C51.1878 23.0625 51.2425 22.7578 51.305 22.5156C51.3675 22.2656 51.4495 22.0664 51.5511 21.918C51.6604 21.7617 51.7972 21.6523 51.9612 21.5898C52.1253 21.5195 52.3323 21.4844 52.5823 21.4844C52.762 21.4844 52.9339 21.5234 53.0979 21.6016C53.262 21.6719 53.4065 21.7734 53.5315 21.9062C53.6565 22.0312 53.7581 22.1758 53.8362 22.3398C53.9143 22.5039 53.9534 22.6797 53.9534 22.8672ZM71.2211 22.0703C71.518 22.0703 71.8032 22.125 72.0766 22.2344C72.3578 22.3438 72.6078 22.4961 72.8266 22.6914C73.0453 22.8867 73.2172 23.1133 73.3422 23.3711C73.475 23.6211 73.5414 23.8945 73.5414 24.1914C73.5414 24.6211 73.4125 24.9609 73.1547 25.2109C72.8969 25.4531 72.5219 25.5742 72.0297 25.5742C71.8266 25.5742 71.643 25.5312 71.4789 25.4453C71.3149 25.3594 71.1625 25.2695 71.0219 25.1758C70.8891 25.0742 70.7602 24.9805 70.6352 24.8945C70.518 24.8086 70.393 24.7656 70.2602 24.7656C69.8383 24.7656 69.3461 24.8242 68.7836 24.9414C68.2289 25.0586 67.5922 25.2695 66.8735 25.5742C66.1938 25.8633 65.5414 26.2109 64.9164 26.6172C64.2914 27.0156 63.6821 27.4609 63.0883 27.9531C62.5102 28.4297 61.9516 28.9688 61.4125 29.5703C60.8813 30.1719 60.4125 30.7734 60.0063 31.375C59.85 31.6094 59.7016 31.8789 59.561 32.1836C59.4282 32.4883 59.311 32.8164 59.2094 33.168C59.1078 33.5117 59.0258 33.8711 58.9633 34.2461C58.9086 34.6133 58.8813 34.9805 58.8813 35.3477C58.8813 35.707 58.9828 36.0039 59.186 36.2383C59.3969 36.4648 59.6508 36.6445 59.9477 36.7773C60.2446 36.9102 60.5571 37.0039 60.8852 37.0586C61.2133 37.1055 61.4985 37.1289 61.7407 37.1289C62.1938 37.1289 62.6743 37.0742 63.1821 36.9648C63.6899 36.8555 64.1977 36.707 64.7055 36.5195C65.2211 36.3242 65.7211 36.0977 66.2055 35.8398C66.6899 35.582 67.1313 35.3086 67.5297 35.0195C67.6313 34.9414 67.7758 34.8164 67.9633 34.6445C68.1508 34.4648 68.3344 34.2734 68.5141 34.0703C68.6938 33.8594 68.85 33.6562 68.9828 33.4609C69.1235 33.2578 69.1938 33.0938 69.1938 32.9688C69.1938 32.8984 69.1821 32.8164 69.1586 32.7227C69.143 32.6289 69.1235 32.5352 69.1 32.4414C69.0844 32.3477 69.0649 32.2578 69.0414 32.1719C69.0258 32.0781 69.018 32.0039 69.018 31.9492C69.018 31.4414 69.5063 31.1875 70.4828 31.1875C70.7328 31.1875 70.975 31.2461 71.2094 31.3633C71.4516 31.4805 71.6664 31.6211 71.8539 31.7852C72.0414 31.9492 72.1938 32.1211 72.311 32.3008C72.436 32.4727 72.5024 32.6172 72.5102 32.7344C72.5102 32.7578 72.475 32.8477 72.4047 33.0039C72.3422 33.1523 72.2563 33.3359 72.1469 33.5547C72.0453 33.7734 71.9321 34.0117 71.8071 34.2695C71.6821 34.5195 71.5649 34.7539 71.4555 34.9727C71.3461 35.1914 71.2485 35.3828 71.1625 35.5469C71.0844 35.7031 71.0375 35.8008 71.0219 35.8398C70.9047 36.1211 70.7797 36.4609 70.6469 36.8594C70.5141 37.2578 70.3891 37.6602 70.2719 38.0664C70.1625 38.4648 70.0727 38.8438 70.0024 39.2031C69.9321 39.5547 69.8969 39.8242 69.8969 40.0117C69.8969 40.082 69.9125 40.1445 69.9438 40.1992C69.9828 40.2617 70.0219 40.3164 70.061 40.3633C70.1 40.418 70.1352 40.4688 70.1664 40.5156C70.2055 40.5625 70.225 40.6094 70.225 40.6562C70.225 40.8828 70.1821 41.0938 70.0961 41.2891C70.0102 41.4844 69.8891 41.6562 69.7328 41.8047C69.5844 41.9531 69.4047 42.0664 69.1938 42.1445C68.9907 42.2305 68.768 42.2734 68.5258 42.2734C68.2446 42.2734 68.0102 42.2305 67.8227 42.1445C67.643 42.0586 67.4946 41.9375 67.3774 41.7812C67.268 41.625 67.1899 41.4336 67.143 41.207C67.1039 40.9883 67.0844 40.7422 67.0844 40.4688C67.0844 40.3125 67.1274 40.0938 67.2133 39.8125C67.2993 39.5312 67.4008 39.2344 67.518 38.9219C67.6352 38.6016 67.7563 38.2891 67.8813 37.9844C68.0063 37.6719 68.1078 37.4141 68.186 37.2109C67.6625 37.5625 67.1586 37.8906 66.6743 38.1953C66.1899 38.5 65.6821 38.7656 65.1508 38.9922C64.6274 39.2188 64.0571 39.3984 63.4399 39.5312C62.8305 39.6562 62.1352 39.7188 61.3539 39.7188C60.5727 39.7188 59.8344 39.6133 59.1391 39.4023C58.4516 39.1914 57.85 38.9023 57.3344 38.5352C56.8188 38.1602 56.4086 37.7227 56.1039 37.2227C55.8071 36.7227 55.6586 36.1875 55.6586 35.6172C55.6586 34.4922 55.9164 33.3281 56.4321 32.125C56.9477 30.9219 57.7289 29.7109 58.7758 28.4922C59.2133 27.9844 59.6625 27.5039 60.1235 27.0508C60.5844 26.5898 61.0258 26.1797 61.4477 25.8203C61.7446 25.5703 62.0766 25.3203 62.4438 25.0703C62.811 24.8125 63.1977 24.5664 63.6039 24.332C64.0102 24.0977 64.4282 23.8789 64.8578 23.6758C65.2875 23.4727 65.7172 23.2891 66.1469 23.125C66.6078 22.9531 67.0453 22.8008 67.4594 22.668C67.8735 22.5352 68.2797 22.4258 68.6782 22.3398C69.0844 22.2539 69.4946 22.1875 69.9086 22.1406C70.3227 22.0938 70.7602 22.0703 71.2211 22.0703Z" fill="black"/>
</svg>
